<svg xmlns="http://www.w3.org/2000/svg" width="200" height="200" viewBox="0 0 200 200"><path d="M65 55v10h10V55H65zm10 10v10h10V65H75zm-10 0H55v20h10V65zM55 85H45v20h10V85zm70-30v10h10V55h-10zm10 10v20h10V65h-10zm10 20v20h10V85h-10zm-20-20h-10v10h10V65zM75 95v10h20V95H75zm30 0v10h20V95h-20zm-20 20v20h10v-20H85zm0 20H75v10h10v-10zm20-20v20h10v-20h-10zm10 20v10h10v-10h-10zm-70-10v10h10v-10H45zm10 10v10h10v-10H55zm90-10v10h10v-10h-10zm0 10h-10v10h10v-10z" fill-opacity=".667"/><path d="M55 95v10h20V95H55zm0 10H45v20h10v-20zm70-10v10h20V95h-20zm20 10v20h10v-20h-10zm-50 0v10h10v-10H95zm-30 30v10h10v-10H65zm60 0v10h10v-10h-10z"/><path d="M65 65v10h10V65H65zm60 0v10h10V65h-10zM55 85v10h10V85H55zm80 0v10h10V85h-10zM35 95v10h10V95H35zm60 0v10h10V95H95zm10 10v10h10v-10h-10zm-10 0H85v10h10v-10zm60-10v10h10V95h-10z" fill-opacity=".333"/></svg>