<?xml version="1.0" encoding="UTF-8"?>
<svg width="129px" height="176px" viewBox="0 0 129 176" version="1.1" xmlns="http://www.w3.org/2000/svg" xmlns:xlink="http://www.w3.org/1999/xlink">
    <!-- Generator: Sketch 53.2 (72643) - https://sketchapp.com -->
    <title>face</title>
    <desc>Created with Sketch.</desc>
    <g id="face" stroke="none" stroke-width="1" fill="none" fill-rule="evenodd">
        <path d="M72.7137932,79.9281919 C74.7782877,78.9821227 77.0518012,78.5 79.5,78.5 C82.1974616,78.5 84.7658881,79.0817435 87.1785247,80.219883 C89.9558765,72.5112533 97.3343272,67 106,67 C117.045695,67 126,75.954305 126,87 C126,98.045695 117.045695,107 106,107 C95.5959226,107 87.0473244,99.0557494 86.0892948,88.9023377 C83.9998669,87.2705271 81.8353672,86.5 79.5,86.5 C77.2827182,86.5 75.4859382,87.1831938 73.9334948,88.6428436 C73.0979273,98.9200672 64.4925484,107 54,107 C42.954305,107 34,98.045695 34,87 C34,75.954305 42.954305,67 54,67 C62.5559727,67 69.8571073,72.3726008 72.7137932,79.9281919 Z M54,99 C60.627417,99 66,93.627417 66,87 C66,80.372583 60.627417,75 54,75 C47.372583,75 42,80.372583 42,87 C42,93.627417 47.372583,99 54,99 Z M106,99 C112.627417,99 118,93.627417 118,87 C118,80.372583 112.627417,75 106,75 C99.372583,75 94,80.372583 94,87 C94,93.627417 99.372583,99 106,99 Z" id="Combined-Shape" fill="#FFFFFF" fill-rule="nonzero"></path>
        <polygon id="Path-2" fill="#FFFFFF" fill-rule="nonzero" points="31.544439 68 29 60.3411159 47.9598433 54 74 57.1352851 73.041331 65.1509513 48.792597 62.2313569"></polygon>
        <polygon id="Path-2" fill="#FFFFFF" fill-rule="nonzero" transform="translate(105.500000, 61.000000) scale(-1, 1) translate(-105.500000, -61.000000) " points="85.544439 68 83 60.3287074 97.5602239 54 128 57.1176827 127.041331 65.1463354 98.3929775 62.2446929"></polygon>
        <path d="M17.9653679,117.580768 L16.6753971,117.580768 L15.6296446,116.824531 C8.47881296,111.653395 5,102.945172 5,91.1173554 C5,78.2761279 11.4644379,71.2966904 23.2091364,72.0561164 L22.6949592,80.0284648 C15.8227193,79.5840977 12.9786879,82.6547034 12.9786879,91.1173554 C12.9786879,99.9434982 15.1520343,105.989201 19.3426103,109.591813 L30.2537184,109.591813 L31.1980206,112.24569 C38.5247856,132.836902 47.4757732,147.744166 57.2059033,157.250252 C64.6103168,164.484174 71.9774188,168.011045 77.3068592,168.011045 C82.9762992,168.011045 89.3822994,165.142917 95.8773021,158.467175 C104.653158,149.447108 112.672946,134.393633 119.368629,112.420572 L127,114.75201 C119.960416,137.853639 111.353574,154.00904 101.592392,164.041852 C93.6359233,172.21973 85.1926427,176 77.3068592,176 C69.7031002,176 60.4275682,171.559501 51.6338765,162.968291 C41.410859,152.980666 32.1867211,137.908897 24.6462691,117.580768 L17.9653679,117.580768 Z" id="Path-9" fill="#FFFFFF" fill-rule="nonzero"></path>
        <polygon id="Path-7" fill="#FFFFFF" fill-rule="nonzero" points="68.3386173 149.85602 55 145.291787 57.4994103 137.442151 68.318147 141.144127 80.2336982 137 91.3581665 141.000147 97.2190534 137.728033 101 145.005905 92.0547667 150 80.1907853 145.733938"></polygon>
        <path d="M79.5873577,130 L78.4119498,122.07728 C85.7513731,120.985589 88.8095331,119.01173 88.9709218,116.74321 C89.129843,114.509375 88.7659201,113.720788 87.165465,112.281951 C86.7086872,111.8713 84.6744699,110.185968 84.5319279,110.064787 C83.2031956,108.935172 82.1109779,107.904121 81.0225195,106.702007 C77.0926301,102.361759 75,98.1596834 75,94 L82.9993075,94 C82.9993075,95.8475616 84.2306803,98.3202022 86.9487969,101.322143 C87.776003,102.235726 88.6256284,103.03777 89.709288,103.959038 C89.7413881,103.986328 91.9106456,105.783539 92.5096638,106.322067 C95.852675,109.327492 97.2956286,112.45424 96.9500105,117.312335 C96.4465986,124.388418 90.1975504,128.421804 79.5873577,130 Z" id="Path-10" fill="#FFFFFF" fill-rule="nonzero"></path>
        <path d="M21.9347007,56.0669767 L16.2306646,61.6762522 C12.5696349,57.9533747 10.6794568,53.4684517 10.6794568,48.4238533 C10.6794568,44.749601 11.9227291,42.5526497 14.9274339,39.0996166 C15.0175692,38.9960734 15.0175692,38.9960734 15.1061787,38.8943195 C17.065985,36.6433064 17.5665536,35.7573804 17.5665536,34.3940025 C17.5665536,33.3628243 17.252558,32.7496135 16.0209822,31.3541867 C15.8715459,31.1848693 15.2348317,30.476196 15.0709989,30.2910545 C12.0253761,26.8493058 10.5665536,23.7699151 10.5665536,18.8716144 L18.5665536,18.8716144 C18.5665536,21.5479406 19.2001225,22.8853248 21.0621083,24.9894879 C21.198001,25.1430553 21.8393846,25.8569256 22.0190091,26.0604477 C24.4183596,28.7790119 25.5665536,31.0213517 25.5665536,34.3940025 C25.5665536,38.2669431 24.2852862,40.5345806 21.1398317,44.1474168 C21.0503267,44.2501992 21.0503267,44.2501992 20.9624887,44.3511034 C19.1442079,46.4406876 18.6794568,47.2619361 18.6794568,48.4238533 C18.6794568,51.3394538 19.7247627,53.819705 21.9347007,56.0669767 Z" id="Path-11" fill="#FFFFFF" fill-rule="nonzero" transform="translate(18.066554, 40.273933) scale(-1, 1) rotate(-212.000000) translate(-18.066554, -40.273933) "></path>
        <path d="M90.1543967,50.2482954 L84.3481511,55.7517046 C77.7792132,48.8212973 74.4448222,40.6129278 74.4448222,31.3208955 C74.4448222,25.0860454 76.5241862,21.2738706 81.9110687,14.8510684 C82.0901601,14.6376217 82.0901601,14.6376217 82.2678389,14.4259347 C86.8095177,9.01378995 88.2190158,6.42565782 88.2190158,2.20895522 C88.2190158,-1.22561195 87.1527649,-3.38600941 84.0791645,-6.99912122 C83.7648115,-7.36865286 82.4889887,-8.84191481 82.1756499,-9.20928623 C76.7021039,-15.626698 74.2190158,-21.0647402 74.2190158,-30 L82.2190158,-30 C82.2190158,-23.217909 83.9207103,-19.4911435 88.2623817,-14.4007884 C88.5484939,-14.0653386 89.8288667,-12.5868226 90.1726351,-12.1827122 C94.3608874,-7.25929291 96.2190158,-3.4944229 96.2190158,2.20895522 C96.2190158,8.85761332 94.0648417,12.8131256 88.3959992,19.5684683 C88.2174488,19.7811938 88.2174488,19.7811938 88.0405935,19.9919756 C83.7815051,25.0701042 82.4448222,27.5206942 82.4448222,31.3208955 C82.4448222,38.5462762 84.9813991,44.790643 90.1543967,50.2482954 Z" id="Path-11" fill="#FFFFFF" fill-rule="nonzero" transform="translate(85.219016, 12.875852) rotate(-448.000000) translate(-85.219016, -12.875852) "></path>
    </g>
</svg>