<?xml version="1.0" encoding="UTF-8"?>
<svg width="129px" height="177px" viewBox="0 0 129 177" version="1.1" xmlns="http://www.w3.org/2000/svg" xmlns:xlink="http://www.w3.org/1999/xlink">
    <!-- Generator: Sketch 53.2 (72643) - https://sketchapp.com -->
    <title>face</title>
    <desc>Created with Sketch.</desc>
    <g id="face" stroke="none" stroke-width="1" fill="none" fill-rule="evenodd">
        <path d="M71.9787043,76.0065672 C74.0431988,75.060498 76.3167123,74.5783752 78.7649111,74.5783752 C81.4623727,74.5783752 84.0307992,75.1601187 86.4434357,76.2982583 C89.2207875,68.5896285 96.5992382,63.0783752 105.264911,63.0783752 C116.310606,63.0783752 125.264911,72.0326803 125.264911,83.0783752 C125.264911,94.1240702 116.310606,103.078375 105.264911,103.078375 C94.8608337,103.078375 86.3122355,95.1341246 85.3542059,84.9807129 C83.264778,83.3489024 81.1002783,82.5783752 78.7649111,82.5783752 C76.5476293,82.5783752 74.7508493,83.2615691 73.1984059,84.7212189 C72.3628384,94.9984425 63.7574594,103.078375 53.2649111,103.078375 C42.2192161,103.078375 33.2649111,94.1240702 33.2649111,83.0783752 C33.2649111,72.0326803 42.2192161,63.0783752 53.2649111,63.0783752 C61.8208838,63.0783752 69.1220184,68.4509761 71.9787043,76.0065672 Z M53.2649111,95.0783752 C59.8923281,95.0783752 65.2649111,89.7057922 65.2649111,83.0783752 C65.2649111,76.4509583 59.8923281,71.0783752 53.2649111,71.0783752 C46.6374941,71.0783752 41.2649111,76.4509583 41.2649111,83.0783752 C41.2649111,89.7057922 46.6374941,95.0783752 53.2649111,95.0783752 Z M105.264911,95.0783752 C111.892328,95.0783752 117.264911,89.7057922 117.264911,83.0783752 C117.264911,76.4509583 111.892328,71.0783752 105.264911,71.0783752 C98.6374941,71.0783752 93.2649111,76.4509583 93.2649111,83.0783752 C93.2649111,89.7057922 98.6374941,95.0783752 105.264911,95.0783752 Z" id="Combined-Shape" fill="#FFFFFF" fill-rule="nonzero"></path>
        <polygon id="Path-2" fill="#FFFFFF" fill-rule="nonzero" points="30.5298221 61.8731084 28 54.2836421 46.8509262 48 72.7414919 51.1068679 71.7883302 59.0498826 47.678896 56.1567505"></polygon>
        <polygon id="Path-2" fill="#FFFFFF" fill-rule="nonzero" transform="translate(104.605835, 54.925334) scale(-1, 1) translate(-104.605835, -54.925334) " points="84.7649111 61.8506683 82.2350889 54.2612019 96.7116698 48 126.976581 51.0844277 126.023419 59.0274425 97.5396396 56.1567505"></polygon>
        <path d="M18,117.555935 L16.7065836,117.555935 L15.6580378,116.798652 C8.48810531,111.620367 5,102.900104 5,91.0559351 C5,78.1969539 11.4817052,71.2078669 23.2577754,71.9683428 L22.7422246,79.9517135 C15.8516281,79.506732 13,82.581583 13,91.0559351 C13,99.8942806 15.1791516,105.948342 19.3809213,109.555935 L30.3211743,109.555935 L31.2679989,112.213481 C38.6143346,132.833161 47.5892314,147.761035 57.345352,157.280265 C64.7695436,164.524188 72.1563241,168.055935 77.5,168.055935 C83.1845839,168.055935 89.6076953,165.183842 96.1200469,158.498869 C104.919345,149.466332 112.960554,134.392044 119.674122,112.388604 L127.325878,114.723266 C120.26749,137.856834 111.637658,154.034572 101.850403,164.081255 C93.8726811,172.270439 85.4068475,176.055935 77.5,176.055935 C69.8759304,176.055935 60.5756223,171.609297 51.7584415,163.006209 C41.508117,153.004775 32.2593403,137.912169 24.6987468,117.555935 L18,117.555935 Z" id="Path-9" fill="#FFFFFF" fill-rule="nonzero"></path>
        <polygon id="Path-7" fill="#FFFFFF" fill-rule="nonzero" points="68.6284505 149.271601 55.2462075 144.854356 57.7537925 137.257514 68.6079132 140.840269 80.5624357 136.829602 91.723288 140.700927 97.6033437 137.534189 101.396656 144.577681 92.4221666 149.410944 80.5193825 145.282268"></polygon>
        <path d="M79.5877548,128.956582 L78.4122452,121.043418 C85.7523038,119.953044 88.8107286,117.981565 88.9721313,115.715781 C89.1310661,113.48464 88.7671117,112.697004 87.1665181,111.259902 C86.7097008,110.849746 84.6753074,109.166447 84.5327531,109.045412 C83.2039057,107.91716 82.1115935,106.887352 81.0230409,105.686687 C77.0928113,101.351675 75,97.1546667 75,93 L83,93 C83,94.8453333 84.2314794,97.3149918 86.9498312,100.313313 C87.7771089,101.225793 88.6268079,102.02687 89.7105613,102.947027 C89.7426643,102.974284 91.9121095,104.769327 92.5111796,105.307206 C95.8544802,108.309007 97.2975587,111.431983 96.9519106,116.284219 C96.4484551,123.351768 90.198866,127.38029 79.5877548,128.956582 Z" id="Path-10" fill="#FFFFFF" fill-rule="nonzero"></path>
        <path d="M21.9347007,56.0669767 L16.2306646,61.6762522 C12.5696349,57.9533747 10.6794568,53.4684517 10.6794568,48.4238533 C10.6794568,44.749601 11.9227291,42.5526497 14.9274339,39.0996166 C15.0175692,38.9960734 15.0175692,38.9960734 15.1061787,38.8943195 C17.065985,36.6433064 17.5665536,35.7573804 17.5665536,34.3940025 C17.5665536,33.3628243 17.252558,32.7496135 16.0209822,31.3541867 C15.8715459,31.1848693 15.2348317,30.476196 15.0709989,30.2910545 C12.0253761,26.8493058 10.5665536,23.7699151 10.5665536,18.8716144 L18.5665536,18.8716144 C18.5665536,21.5479406 19.2001225,22.8853248 21.0621083,24.9894879 C21.198001,25.1430553 21.8393846,25.8569256 22.0190091,26.0604477 C24.4183596,28.7790119 25.5665536,31.0213517 25.5665536,34.3940025 C25.5665536,38.2669431 24.2852862,40.5345806 21.1398317,44.1474168 C21.0503267,44.2501992 21.0503267,44.2501992 20.9624887,44.3511034 C19.1442079,46.4406876 18.6794568,47.2619361 18.6794568,48.4238533 C18.6794568,51.3394538 19.7247627,53.819705 21.9347007,56.0669767 Z" id="Path-11" fill="#FFFFFF" fill-rule="nonzero" transform="translate(18.066554, 40.273933) scale(-1, 1) rotate(-212.000000) translate(-18.066554, -40.273933) "></path>
        <path d="M90.1543967,50.2482954 L84.3481511,55.7517046 C77.7792132,48.8212973 74.4448222,40.6129278 74.4448222,31.3208955 C74.4448222,25.0860454 76.5241862,21.2738706 81.9110687,14.8510684 C82.0901601,14.6376217 82.0901601,14.6376217 82.2678389,14.4259347 C86.8095177,9.01378995 88.2190158,6.42565782 88.2190158,2.20895522 C88.2190158,-1.22561195 87.1527649,-3.38600941 84.0791645,-6.99912122 C83.7648115,-7.36865286 82.4889887,-8.84191481 82.1756499,-9.20928623 C76.7021039,-15.626698 74.2190158,-21.0647402 74.2190158,-30 L82.2190158,-30 C82.2190158,-23.217909 83.9207103,-19.4911435 88.2623817,-14.4007884 C88.5484939,-14.0653386 89.8288667,-12.5868226 90.1726351,-12.1827122 C94.3608874,-7.25929291 96.2190158,-3.4944229 96.2190158,2.20895522 C96.2190158,8.85761332 94.0648417,12.8131256 88.3959992,19.5684683 C88.2174488,19.7811938 88.2174488,19.7811938 88.0405935,19.9919756 C83.7815051,25.0701042 82.4448222,27.5206942 82.4448222,31.3208955 C82.4448222,38.5462762 84.9813991,44.790643 90.1543967,50.2482954 Z" id="Path-11" fill="#FFFFFF" fill-rule="nonzero" transform="translate(85.219016, 12.875852) rotate(-448.000000) translate(-85.219016, -12.875852) "></path>
    </g>
</svg>