<svg xmlns="http://www.w3.org/2000/svg" width="1000" height="1000" viewBox="0 0 1000 1000"><path d="M596.368 566.813h-137.05c-81.432 0-134.31 43.36-135.005 113.864.685 79.03 58.888 121.945 133.218 121.945 81.77 0 138.264-50.25 138.264-50.25v47.683h50.62l-.49-280.076c0-75.253-68.384-121.434-149.397-121.434-81.013 0-148.907 50.017-148.907 115.842h48.47c0-26.543 30.313-69.22 100.437-69.13 70.124.09 99.887 37.74 99.886 74.72zm0 128.42s-55.81 59.72-135.392 59.72c-52.226 0-89.44-30.355-89.44-74.276.375-38.12 34.126-66.497 92.28-66.497H596.37z" stroke="#000" stroke-width="2"/></svg>