<svg xmlns="http://www.w3.org/2000/svg" width="1000" height="1000" viewBox="0 0 1000 1000"><path style="line-height:normal;text-indent:0;text-align:start;text-decoration-line:none;text-decoration-style:solid;text-decoration-color:#000;text-transform:none;block-progression:tb;isolation:auto;mix-blend-mode:normal" d="M405.725 851.76s18.21 65.513 104.436 65.513c75.178 0 121.27-34.305 121.27-103.908V755.7s-48.424 50.145-114.827 50.145C390.277 805.845 336.02 704 336.02 601.59c0-111.25 61.963-204.89 182.583-204.89 74.203 0 112.827 42.72 112.827 42.72v-41.64h49.895v415.585c0 103.02-79.895 150.932-171.164 150.932-114.47 0-150.405-90.44-152.404-112.538zm110.878-96.674c65.91 0 114.827-62.09 114.827-62.09V501.102s-44.26-55.606-112.827-55.606c-93.45 0-132.652 80.134-132.652 156.096s42.596 153.496 130.653 153.496z" color="#000" font-weight="400" font-family="sans-serif" white-space="normal" overflow="visible"/></svg>