<svg xmlns="http://www.w3.org/2000/svg" width="1000" height="1000" viewBox="0 0 1000 1000"><g stroke-width="2"><path d="M481.576 398.154c-66.926 0-105.664 47.123-105.664 47.123V400.72h-50.62l.49 399.577h49.513l.644-287.63s31.49-66.845 103.892-66.845c60.038 0 88.54 37.227 88.54 87.778l.5 266.697h47.222l-.5-266.697c-.03-3.523-.153-6.973-.346-10.366l5.563-16.644c6.738-11.596 33.497-60.768 97.258-60.768 60.04 0 88.54 37.227 88.54 87.778l.5 266.697h47.224l-.5-266.697c-.762-87.87-52.658-135.446-134.02-135.446-59.54 0-98.527 35.733-106.02 43.965l-14.778 18.107c-21.513-40.648-62.84-62.073-117.438-62.073z"/></g></svg>