<svg xmlns="http://www.w3.org/2000/svg" width="1000" height="1000" viewBox="0 0 1000 1000"><path style="line-height:normal;text-indent:0;text-align:start;text-decoration-line:none;text-decoration-style:solid;text-decoration-color:#000;text-transform:none;block-progression:tb;isolation:auto;mix-blend-mode:normal" d="M500 191.297c-181.527 0-281.445 138.025-281.445 307.312S320.695 805.92 500 805.92c68.704 0 126.063-20.282 170.703-54.805l49.508 49.252h74.468l-85.963-85.52c47.456-55.595 72.73-132.047 72.73-216.24 0-169.288-99.918-307.313-281.445-307.313zm0 52.748c137.286 0 227.477 116.294 227.477 254.564 0 67.695-22.378 129.152-60.956 174.265l-107.6-107.043h-74.465l143.46 142.72C592.402 734.23 548.922 749.175 500 749.175c-134.16 0-227.627-111.19-227.627-250.565S362.713 244.044 500 244.044z" color="#000" font-weight="400" font-family="sans-serif" white-space="normal" overflow="visible"/></svg>