<?xml version="1.0" encoding="UTF-8" standalone="no"?>
<!-- Created with Inkscape (http://www.inkscape.org/) -->

<svg
   xmlns:dc="http://purl.org/dc/elements/1.1/"
   xmlns:cc="http://creativecommons.org/ns#"
   xmlns:rdf="http://www.w3.org/1999/02/22-rdf-syntax-ns#"
   xmlns:svg="http://www.w3.org/2000/svg"
   xmlns="http://www.w3.org/2000/svg"
   xmlns:sodipodi="http://sodipodi.sourceforge.net/DTD/sodipodi-0.dtd"
   xmlns:inkscape="http://www.inkscape.org/namespaces/inkscape"
   width="1000"
   height="1000"
   viewBox="0 0 1000 1000"
   id="svg2"
   version="1.1"
   inkscape:version="0.91 r13725"
   sodipodi:docname="s.svg">
  <defs
     id="defs4" />
  <sodipodi:namedview
     id="base"
     pagecolor="#ffffff"
     bordercolor="#666666"
     borderopacity="1.0"
     inkscape:pageopacity="0"
     inkscape:pageshadow="2"
     inkscape:zoom="0.30009658"
     inkscape:cx="450.39455"
     inkscape:cy="526.2252"
     inkscape:document-units="px"
     inkscape:current-layer="svg2"
     showgrid="false"
     units="px"
     inkscape:showpageshadow="false"
     showguides="true"
     inkscape:guide-bbox="true"
     inkscape:window-width="1317"
     inkscape:window-height="723"
     inkscape:window-x="49"
     inkscape:window-y="1"
     inkscape:window-maximized="1"
     showborder="false"
     inkscape:snap-page="true"
     inkscape:snap-bbox="true"
     inkscape:bbox-nodes="false"
     inkscape:snap-bbox-midpoints="false"
     inkscape:bbox-paths="true">
    <sodipodi:guide
       position="0,200"
       orientation="0,1"
       id="guide4136"
       inkscape:label="baseline"
       inkscape:color="rgb(0,0,255)" />
    <sodipodi:guide
       position="0,600"
       orientation="0,1"
       id="guide4138"
       inkscape:label="x-height"
       inkscape:color="rgb(0,0,255)" />
    <sodipodi:guide
       position="0,800"
       orientation="0,1"
       id="guide4140"
       inkscape:label="cap-height"
       inkscape:color="rgb(0,0,255)" />
    <sodipodi:guide
       position="0,1000"
       orientation="1,0"
       id="guide12007" />
    <sodipodi:guide
       position="1000,1000"
       orientation="0,1"
       id="guide12009" />
    <sodipodi:guide
       position="1000,0"
       orientation="1,0"
       id="guide12011" />
    <sodipodi:guide
       position="0,0"
       orientation="0,1"
       id="guide12013" />
  </sodipodi:namedview>
  <metadata
     id="metadata7">
    <rdf:RDF>
      <cc:Work
         rdf:about="">
        <dc:format>image/svg+xml</dc:format>
        <dc:type
           rdf:resource="http://purl.org/dc/dcmitype/StillImage" />
        <dc:title></dc:title>
      </cc:Work>
    </rdf:RDF>
  </metadata>
  <g
     inkscape:groupmode="layer"
     id="layer4"
     inkscape:label="background"
     style="display:none"
     sodipodi:insensitive="true">
    <rect
       style="opacity:1;fill:#ffffff;fill-opacity:1;fill-rule:nonzero;stroke:none;stroke-width:2;stroke-linecap:butt;stroke-linejoin:miter;stroke-miterlimit:4;stroke-dasharray:none;stroke-opacity:1"
       id="rect4159"
       width="1000"
       height="1000"
       x="-2.4654898e-06"
       y="1.0094885e-05" />
  </g>
  <g
     inkscape:groupmode="layer"
     id="layer2"
     inkscape:label="compare"
     style="display:none">
    <flowRoot
       xml:space="preserve"
       id="flowRoot4148"
       style="font-style:normal;font-weight:normal;font-size:50px;line-height:125%;font-family:sans-serif;letter-spacing:0px;word-spacing:0px;fill:#000000;fill-opacity:1;stroke:none;stroke-width:1px;stroke-linecap:butt;stroke-linejoin:miter;stroke-opacity:1"><flowRegion
         id="flowRegion4150"><rect
           id="rect4152"
           width="125.25892"
           height="424.26407"
           x="42.426407"
           y="470.68005" /></flowRegion><flowPara
         id="flowPara4154" /></flowRoot>    <flowRoot
       xml:space="preserve"
       id="flowRoot4156"
       style="font-style:normal;font-weight:normal;font-size:625px;line-height:125%;font-family:sans-serif;letter-spacing:0px;word-spacing:0px;fill:#000000;fill-opacity:1;stroke:none;stroke-width:1px;stroke-linecap:butt;stroke-linejoin:miter;stroke-opacity:1"
       transform="matrix(1.2015316,0,0,1.2015316,649.09338,-428.64461)"><flowRegion
         id="flowRegion4158"><rect
           id="rect4160"
           width="1519.6067"
           height="868.8125"
           x="18.182745"
           y="393.90848"
           style="font-size:625px" /></flowRegion><flowPara
         id="flowPara4162"
         style="font-style:normal;font-variant:normal;font-weight:normal;font-stretch:normal;font-size:625px;font-family:'Helvetica Neue';-inkscape-font-specification:'Helvetica Neue'">soA</flowPara></flowRoot>  </g>
  <g
     inkscape:groupmode="layer"
     id="layer1"
     inkscape:label="draft1"
     style="display:none">
    <path
       style="display:inline;opacity:1;fill:#000000;fill-opacity:1;fill-rule:nonzero;stroke:#000000;stroke-width:2;stroke-linecap:butt;stroke-linejoin:miter;stroke-miterlimit:4;stroke-dasharray:none;stroke-opacity:1"
       d="m 537.07183,574.49916 c -23.8199,-4.53259 -55.68392,-5.98467 -92.45022,-17.38164 -32.28375,-10.00746 -39.67754,-28.73094 -39.67754,-51.27477 0,-30.58049 19.89532,-64.42442 94.23893,-64.42442 81.79112,0.91319 87.51256,45.97907 87.51256,67.52956 l 48.46929,-2.6e-4 c 0,-66.6549 -37.80903,-115.3425 -136.00585,-114.24174 -97.46093,-0.50296 -143.65487,55.43395 -143.72646,111.13686 0,40.94855 15.85301,79.24353 77.15724,96.33281 18.18726,5.06991 69.32421,11.58015 95.99033,15.646 39.03807,5.95223 73.87589,28.0396 73.87589,65.47257 0,30.35047 -19.84427,74.04397 -101.63539,74.95716 -78.27386,0 -99.71121,-46.56019 -99.71121,-67.52956 l -49.51153,0 c 0,66.66854 51.73781,114.74496 149.19874,114.242 98.19682,1.10076 149.1067,-54.7923 149.12832,-121.6696 0,-56.78035 -39.32642,-94.80389 -112.8531,-108.79497 z"
       id="path4727"
       inkscape:connector-curvature="0"
       sodipodi:nodetypes="ssccccccssccccccs" />
  </g>
  <g
     inkscape:groupmode="layer"
     id="g4167"
     inkscape:label="draft2"
     style="display:none">
    <path
       id="path4169"
       style="display:inline;opacity:1;fill:#000000;fill-opacity:1;fill-rule:nonzero;stroke:#000000;stroke-width:2;stroke-linecap:butt;stroke-linejoin:miter;stroke-miterlimit:4;stroke-dasharray:none;stroke-opacity:1"
       d="m 487.963,445.85679 c 67.78096,0.0863 90.28724,42.11972 90.28623,66.42121 l 49.51154,0 C 627.7617,447.17151 568.83681,399.14435 487.963,399.14435 c -80.87381,0 -141.20617,38.75009 -141.23798,108.53465 -0.0318,69.78456 53.02608,95.4787 115.69398,103.921 l 59.34634,10.3 c 64.14775,11.13332 77.78355,38.10639 77.78355,67.88214 0,34.23059 -23.75384,67.72094 -102.98489,67.82181 -87.12027,0.11091 -110.238,-46.63944 -110.238,-81.12891 l -50.46899,-9e-5 c 0,78.9553 57.59294,127.84144 160.70699,127.84144 92.062,0 152.49643,-38.65485 152.49643,-114.53425 0,-68.55147 -39.15793,-99.74444 -126.92377,-114.88214 L 462.419,564.6 c -49.84733,-6.79944 -67.25193,-31.2672 -67.22469,-56.921 0.0351,-33.07567 31.50636,-61.9002 92.76869,-61.82221 z"
       inkscape:connector-curvature="0"
       sodipodi:nodetypes="scczccsssccsssccs" />
  </g>
  <g
     style="display:none"
     inkscape:label="draft3"
     id="g4171"
     inkscape:groupmode="layer">
    <path
       sodipodi:nodetypes="czcczsccsccccssc"
       inkscape:connector-curvature="0"
       d="m 388.34625,513.47765 c -10e-4,-69.78307 48.9549,-114.3333 136.59748,-114.3333 87.64258,0 148.9067,44.55023 148.9067,114.24183 l -48.46929,-9e-5 c 0,-29.85762 -25.89385,-67.62424 -100.43741,-67.5293 -74.54356,0.0949 -89.94599,33.00508 -87.08598,60.42121 4.22748,40.52474 59.78073,51.39583 124.2962,59.53303 84.33196,10.63661 134.3077,43.36169 135.00366,113.86394 -0.68502,79.03108 -68.18123,121.9452 -165.71835,121.9452 C 449.66938,801.62017 376,731.18315 376,671.2 l 49.10276,0 c 0,9.7179 27.17687,82.7522 102.89197,82.7522 78.33381,0 121.9398,-30.356 121.9398,-74.27723 -0.37468,-38.11976 -35.03075,-56.27914 -92.28039,-66.49647 0,0 -41.23279,-5.18208 -91.93876,-17.40537 -39.84147,-9.60427 -77.36913,-39.5607 -77.36913,-82.29548 z"
       style="display:inline;opacity:1;fill:#000000;fill-opacity:1;fill-rule:nonzero;stroke:#000000;stroke-width:2;stroke-linecap:butt;stroke-linejoin:miter;stroke-miterlimit:4;stroke-dasharray:none;stroke-opacity:1"
       id="path4173" />
  </g>
  <g
     style="display:inline"
     inkscape:label="master"
     id="g4160"
     inkscape:groupmode="layer">
    <path
       sodipodi:nodetypes="scczccssccssccs"
       inkscape:connector-curvature="0"
       d="m 492.06333,445.85679 c 74.54356,0.0949 94.78657,42.11972 94.78556,66.42121 l 49.51154,0 c 9.3e-4,-65.10649 -56.65452,-113.13365 -144.2971,-113.13365 -87.64258,0 -145.3065,38.75009 -145.33831,108.53465 -0.0318,69.78456 57.50058,97.55637 145.10672,109.35822 74.77515,10.17348 107.71715,30.14899 107.71715,72.74492 0,34.23059 -28.15384,67.72094 -107.38489,67.82181 -74.54356,0.0949 -103.75534,-46.63944 -105.838,-81.12891 l -50.46899,-9e-5 c 0,78.9553 68.66441,127.84144 156.30699,127.84144 92.062,0 156.89643,-38.65485 156.89643,-114.53425 0,-90.29033 -72.52223,-107.79739 -157.22869,-119.45736 -82.15934,-11.20697 -96.66467,-36.99198 -96.63743,-62.64578 0.0351,-33.07567 35.60669,-61.90022 96.86902,-61.82221 z"
       style="display:inline;opacity:1;fill:#000000;fill-opacity:1;fill-rule:nonzero;stroke:#000000;stroke-width:2;stroke-linecap:butt;stroke-linejoin:miter;stroke-miterlimit:4;stroke-dasharray:none;stroke-opacity:1"
       id="path5677" />
  </g>
</svg>
