<svg xmlns="http://www.w3.org/2000/svg" width="1000" height="1000" viewBox="0 0 1000 1000"><path d="M492.063 445.857c74.544.095 94.787 42.12 94.786 66.42h49.51c0-65.105-56.654-113.133-144.297-113.133-87.642 0-145.306 38.75-145.338 108.535-.032 69.784 57.5 97.555 145.107 109.357 74.775 10.174 107.717 30.15 107.717 72.745 0 34.23-28.155 67.72-107.386 67.822-74.544.095-103.755-46.64-105.838-81.13h-50.47c0 78.956 68.665 127.842 156.308 127.842 92.062 0 156.896-38.654 156.896-114.534 0-90.29-72.522-107.797-157.228-119.457-82.16-11.207-96.665-36.992-96.638-62.646.035-33.077 35.607-61.9 96.87-61.823z" stroke="#000" stroke-width="2"/></svg>